<?xml version="1.0" encoding="UTF-8"?>
<svg width="47px" height="47px" viewBox="0 0 47 47" version="1.1" xmlns="http://www.w3.org/2000/svg" xmlns:xlink="http://www.w3.org/1999/xlink">
    <title>音量关闭-默认</title>
    <g id="应用商店" stroke="none" stroke-width="1" fill="none" fill-rule="evenodd">
        <g id="5-5-2-商品详情页-banner-音量按钮hv" transform="translate(-13.000000, -129.000000)" fill="#E0E6EC">
            <g id="播放备份-3" transform="translate(13.000000, 129.000000)">
                <g id="编组-10" transform="translate(11.000000, 14.231038)">
                    <path d="M12.5454525,0.730579149 C12.8393484,1.08836542 13,1.53703986 13,2.000058 L13,16.5378663 C13,17.6424358 12.1045695,18.5378663 11,18.5378663 C10.5369819,18.5378663 10.0883074,18.3772147 9.73052115,18.0833188 L5.694,14.768 L3,14.7689621 C1.34314575,14.7689621 2.02906125e-16,13.4258164 0,11.7689621 L0,6.76896215 C-2.02906125e-16,5.1121079 1.34314575,3.76896215 3,3.76896215 L5.696,3.768 L9.73052115,0.454605487 C10.584051,-0.24650832 11.8443387,-0.122950703 12.5454525,0.730579149 Z" id="形状结合"></path>
                    <rect id="矩形" transform="translate(19.500000, 9.500000) rotate(-45.000000) translate(-19.500000, -9.500000) " x="18" y="4" width="3" height="11" rx="1.5"></rect>
                    <rect id="矩形" transform="translate(19.500000, 9.500000) rotate(-135.000000) translate(-19.500000, -9.500000) " x="18" y="4" width="3" height="11" rx="1.5"></rect>
                </g>
            </g>
        </g>
    </g>
</svg>