<?xml version="1.0" encoding="UTF-8"?>
<svg width="47px" height="47px" viewBox="0 0 47 47" version="1.1" xmlns="http://www.w3.org/2000/svg" xmlns:xlink="http://www.w3.org/1999/xlink">
    <title>音量-默认</title>
    <g id="应用商店" stroke="none" stroke-width="1" fill="none" fill-rule="evenodd">
        <g id="5-5-2-商品详情页-banner-播放按钮点击全态" transform="translate(-85.000000, -341.000000)">
            <g id="音量-默认" transform="translate(85.000000, 341.000000)">
                <rect id="矩形" x="0" y="0" width="47" height="47"></rect>
                <path d="M24.5454525,14.961617 C24.8393484,15.3194033 25,15.7680777 25,16.2310958 L25,30.7689042 C25,31.8734737 24.1045695,32.7689042 23,32.7689042 C22.5369819,32.7689042 22.0883074,32.6082525 21.7305212,32.3143567 L17.694,28.9990379 L15,29 C13.3431458,29 12,27.6568542 12,26 L12,21 C12,19.3431458 13.3431458,18 15,18 L17.696,17.9990379 L21.7305212,14.6856433 C22.584051,13.9845295 23.8443387,14.1080871 24.5454525,14.961617 Z" id="形状结合" fill="#E0E6EC"></path>
                <path d="M27.913856,28.3793681 C28.5751662,28.1051477 29.1703087,27.7035502 29.6686787,27.2051803 C30.6477894,26.2260696 31.2533819,24.8734407 31.2533819,23.3793681 C31.2533819,21.8852955 30.6477894,20.5326667 29.6686787,19.553556 C29.1703087,19.055186 28.5751662,18.6535885 27.913856,18.3793681" id="路径" stroke="#E0E6EC" stroke-width="2" stroke-linecap="round"></path>
                <path d="M29.9119982,31.3793681 C30.9700946,30.9406155 31.9223225,30.2980595 32.7197145,29.5006675 C34.2862916,27.9340904 35.2552397,25.7698842 35.2552397,23.3793681 C35.2552397,20.988852 34.2862916,18.8246458 32.7197145,17.2580687 C31.9223225,16.4606767 30.9700946,15.8181207 29.9119982,15.3793681" id="路径" stroke="#E0E6EC" stroke-width="2" stroke-linecap="round"></path>
            </g>
        </g>
    </g>
</svg>